# This file uses centimeters as units for non-parametric coordinates.

mtllib Mushroom.mtl
g default
v -0.500000 0.114846 0.500000
v 0.500000 0.114846 0.500000
v -0.500000 1.017596 0.500000
v 0.500000 1.017596 0.500000
v -0.500000 1.017596 -0.500000
v 0.500000 1.017596 -0.500000
v -0.500000 0.114846 -0.500000
v 0.500000 0.114846 -0.500000
v -0.431310 3.776843 0.431310
v 0.431310 3.776843 0.431310
v 0.431310 3.776843 -0.431310
v -0.431310 3.776843 -0.431310
v 1.650598 2.161314 1.650598
v -1.650598 2.161314 1.650598
v -1.650598 2.161314 -1.650598
v 1.650598 2.161314 -1.650598
v 1.393421 2.630317 1.393421
v -1.393421 2.630317 1.393421
v -1.393421 2.630317 -1.393421
v 1.393421 2.630317 -1.393421
v 1.085117 3.186098 1.085117
v -1.085117 3.186098 1.085117
v -1.085117 3.186098 -1.085117
v 1.085117 3.186098 -1.085117
v 0.867029 3.412811 0.867029
v -0.867029 3.412811 0.867029
v -0.867029 3.412811 -0.867029
v 0.867029 3.412811 -0.867029
v 0.515136 1.824684 -0.515136
v 0.515136 1.824684 0.515136
v -0.515136 1.824684 0.515136
v -0.515136 1.824684 -0.515136
v 1.151770 2.202715 -1.151770
v 1.151770 2.202715 1.151770
v -1.151770 2.202715 1.151770
v -1.151770 2.202715 -1.151770
v 0.334702 1.489112 0.334702
v -0.334702 1.489112 0.334702
v -0.334702 1.489112 -0.334702
v 0.334702 1.489112 -0.334702
v 0.630071 0.579714 -0.630071
v -0.630071 0.579714 -0.630071
v -0.630071 0.579714 0.630071
v 0.630071 0.579714 0.630071
v 0.550534 3.825750 -0.002613
v -0.550534 3.825750 -0.002613
v -1.106695 3.693155 -0.008419
v -1.385066 3.403775 -0.011325
v -1.914189 2.694363 -0.016848
v -2.276917 2.095718 -0.020635
v -1.294521 2.248878 -0.012143
v -0.578983 1.823993 -0.004673
v -0.376185 1.446831 -0.002556
v -0.561970 0.916875 -0.004496
v -0.708162 0.424721 -0.006022
v -0.561970 -0.097763 -0.004496
v 0.561970 -0.097763 -0.004496
v 0.708162 0.424721 -0.006022
v 0.561970 0.916875 -0.004496
v 0.376185 1.446831 -0.002556
v 0.578983 1.823993 -0.004673
v 1.294521 2.248878 -0.012143
v 2.276917 2.095718 -0.020635
v 1.914189 2.694363 -0.016848
v 1.385066 3.403775 -0.011325
v 1.106695 3.693155 -0.008419
v -0.013253 3.843124 -0.557791
v -0.036243 3.737052 -1.121284
v -0.047750 3.463889 -1.403326
v -0.069622 2.794237 -1.939424
v -0.084616 2.229143 -2.306933
v -0.051267 2.279026 -1.387749
v -0.017676 1.823542 -0.620680
v -0.008156 1.419217 -0.403277
v -0.016878 0.851095 -0.602442
v -0.023740 0.323498 -0.759162
v -0.016878 -0.236615 -0.602442
v -0.020147 -0.492783 -0.005417
v -0.016878 -0.236615 0.602442
v -0.023740 0.323498 0.759162
v -0.016878 0.851095 0.602442
v -0.008156 1.419217 0.403277
v -0.017676 1.823542 0.620680
v -0.051267 2.279026 1.387749
v -0.084616 2.229143 2.306933
v -0.069622 2.794237 1.939424
v -0.047750 3.463889 1.403326
v -0.036243 3.737052 1.121284
v -0.013253 3.843124 0.557791
v -0.016074 3.923722 -0.004446
vt 0.763150 0.130710
vt 0.555645 0.319230
vt 0.595182 0.383761
vt 0.808939 0.146934
vt 0.328300 0.304610
vt 0.293640 0.320626
vt 0.284299 0.274835
vt 0.328595 0.265745
vt 0.799924 0.246203
vt 0.769270 0.282817
vt 0.723452 0.251959
vt 0.762470 0.227001
vt 0.693363 0.169467
vt 0.625625 0.187944
vt 0.562420 0.238784
vt 0.711810 0.129135
vt 0.625861 0.337903
vt 0.663414 0.309206
vt 0.699333 0.350336
vt 0.657513 0.373974
vt 0.750565 0.176571
vt 0.802611 0.194489
vt 0.657378 0.420635
vt 0.859898 0.172259
vt 0.741321 0.389738
vt 0.699468 0.411867
vt 0.844437 0.269189
vt 0.816849 0.315245
vt 0.855250 0.219002
vt 0.435389 0.490289
vt 0.348642 0.547472
vt 0.332161 0.477740
vt 0.471011 0.396788
vt 0.604037 0.520172
vt 0.491399 0.230322
vt 0.684027 0.813583
vt 0.707152 0.652280
vt 0.407015 0.089297
vt 0.247292 0.070501
vt 0.273114 0.762551
vt 0.000000 0.332237
vt 0.073651 0.317390
vt 0.158491 0.461495
vt 0.312928 0.398254
vt 0.413673 0.360149
vt 0.408331 0.248318
vt 0.369055 0.145725
vt 0.261405 0.151020
vt 0.157160 0.300669
vt 0.196718 0.404994
vt 0.304876 0.365212
vt 0.383416 0.340372
vt 0.374001 0.255775
vt 0.349191 0.175910
vt 0.267218 0.184510
vt 0.191701 0.293771
vt 0.216754 0.374853
vt 0.312901 0.230677
vt 0.274723 0.229853
vt 0.237403 0.284751
vt 0.253229 0.320208
vt 0.711128 0.456453
vt 0.764484 0.427296
vt 0.427754 0.814319
vt 0.713562 0.558429
vt 0.905145 0.165993
vt 0.655789 0.449899
vt 0.378584 0.635220
vt 1.000000 0.127953
vt 0.898746 0.226137
vt 0.981073 0.228122
vt 0.857842 0.341754
vt 0.890793 0.287606
vt 0.989704 0.317893
vt 0.932538 0.388667
vt 0.675026 0.220657
vt 0.719210 0.207846
vt 0.605283 0.291374
vt 0.635028 0.259536
vt 0.680107 0.268206
vt 0.714220 0.300683
vt 0.745942 0.327967
vt 0.783646 0.360371
vt 0.818396 0.396297
vt 0.884324 0.475955
vt 0.544850 0.924533
vt 0.094496 0.154856
vt 0.152115 0.191310
vt 0.182536 0.210898
vt 0.237832 0.246372
vt 0.304507 0.587356
vt 0.522242 0.429045
vt 0.234547 0.000000
vt 0.043098 0.122522
vt 0.379610 0.896672
vt 0.124280 0.511721
vt 0.564809 0.214520
vt 0.441085 0.039316
vt 0.610710 0.523099
vt 0.451958 0.555889
vt 0.606688 0.771190
vt 0.528293 0.858927
vt 0.798046 0.502453
vt 0.338698 0.745911
vt 0.554496 0.601696
vt 0.641568 0.668912
vt 0.879782 0.120696
vt 0.933174 0.053255
vt 0.852845 0.132034
vt 0.795812 0.088565
vt 0.721309 0.075830
vt 0.648577 0.110501
vn -0.191142 0.090798 0.977354
vn -0.002514 -0.084797 0.996395
vn -0.000047 0.311367 0.950290
vn -0.092263 0.318947 0.943271
vn -0.186953 0.970983 0.149136
vn 0.001669 0.988595 0.150591
vn -0.000491 1.000000 -0.000298
vn -0.189490 0.981882 0.000530
vn -0.092263 0.318947 -0.943271
vn -0.000047 0.311368 -0.950290
vn -0.002514 -0.084797 -0.996395
vn -0.191142 0.090798 -0.977354
vn -0.612768 -0.790263 -0.000025
vn 0.001170 -0.999999 0.000281
vn 0.000609 -0.907436 0.420189
vn -0.574471 -0.741680 0.346257
vn 0.991061 0.054921 0.121581
vn 0.998693 -0.051102 -0.000330
vn 0.950945 0.309360 -0.000006
vn 0.948551 0.311877 0.054628
vn -0.998693 -0.051102 -0.000330
vn -0.991061 0.054921 0.121581
vn -0.948551 0.311877 0.054628
vn -0.950945 0.309360 -0.000006
vn 0.001523 0.028993 0.999578
vn -0.175423 -0.088066 0.980547
vn 0.999956 0.009362 0.000234
vn 0.992566 -0.066372 0.102021
vn -0.175423 -0.088066 -0.980547
vn 0.001523 0.028993 -0.999578
vn -0.992566 -0.066371 0.102021
vn -0.999956 0.009362 0.000234
vn -0.328882 -0.490868 0.806775
vn -0.002610 -0.457663 0.889122
vn -0.000250 0.605076 0.796168
vn -0.363810 0.567005 0.739018
vn -0.833172 -0.553014 -0.000557
vn -0.816450 -0.477237 0.325046
vn -0.779019 0.549299 0.302324
vn -0.814664 0.579933 -0.000064
vn -0.002610 -0.457663 -0.889122
vn -0.328882 -0.490868 -0.806775
vn -0.363810 0.567005 -0.739018
vn -0.000250 0.605076 -0.796168
vn 0.816450 -0.477237 0.325047
vn 0.833172 -0.553014 -0.000557
vn 0.814664 0.579933 -0.000064
vn 0.779019 0.549299 0.302324
vn 0.002475 0.679847 0.733350
vn -0.378487 0.616575 0.690350
vn -0.733487 0.600386 0.318645
vn -0.755968 0.654609 0.000496
vn -0.378487 0.616575 -0.690350
vn 0.002475 0.679847 -0.733350
vn 0.755968 0.654609 0.000496
vn 0.733486 0.600386 0.318645
vn -0.000169 0.891434 0.453150
vn -0.394272 0.796181 0.458961
vn -0.514340 0.787574 0.339383
vn -0.488407 0.872616 -0.000097
vn -0.394272 0.796181 -0.458961
vn -0.000169 0.891434 -0.453150
vn 0.488407 0.872616 -0.000097
vn 0.514340 0.787574 0.339383
vn 0.006603 0.957519 0.288296
vn -0.358994 0.897175 0.257295
vn -0.313993 0.896842 0.311580
vn -0.327954 0.944692 0.001585
vn -0.358994 0.897175 -0.257295
vn 0.006603 0.957519 -0.288296
vn 0.327954 0.944692 0.001585
vn 0.313993 0.896842 0.311580
vn 0.550576 -0.833293 0.049886
vn 0.577760 -0.816207 0.000080
vn 0.093327 -0.995636 -0.000149
vn 0.010094 -0.999863 -0.013102
vn -0.085091 -0.836423 0.541438
vn 0.000496 -0.825624 0.564220
vn -0.001123 -0.989743 0.142855
vn 0.035108 -0.994678 0.096870
vn -0.577760 -0.816207 0.000080
vn -0.550576 -0.833293 0.049886
vn -0.010094 -0.999863 -0.013103
vn -0.093327 -0.995636 -0.000149
vn 0.000496 -0.825624 -0.564220
vn -0.085091 -0.836423 -0.541438
vn 0.035108 -0.994678 -0.096871
vn -0.001123 -0.989743 -0.142855
vn 0.008576 -0.311727 -0.950133
vn -0.353474 -0.295554 -0.887527
vn -0.955323 -0.295561 0.001003
vn -0.934644 -0.288565 0.207774
vn -0.353474 -0.295554 0.887527
vn 0.008576 -0.311727 0.950133
vn 0.934644 -0.288565 0.207774
vn 0.955323 -0.295561 0.001003
vn 0.001684 0.988254 -0.152808
vn -0.187736 0.970495 -0.151313
vn -0.508649 0.788941 -0.344745
vn -0.308777 0.897257 -0.315573
vn -0.729360 0.602133 -0.324762
vn -0.775406 0.551013 -0.308432
vn -0.811721 -0.480898 -0.331432
vn -0.010802 -0.999853 0.013304
vn -0.550107 -0.833547 -0.050807
vn -0.992351 -0.066897 -0.103748
vn -0.948376 0.312245 -0.055545
vn -0.990756 0.056017 -0.123552
vn -0.933474 -0.289418 -0.211812
vn -0.574045 -0.739502 -0.351581
vn 0.000595 -0.904484 -0.426506
vn 0.933474 -0.289418 -0.211812
vn 0.990756 0.056017 -0.123552
vn 0.948376 0.312245 -0.055545
vn 0.992351 -0.066897 -0.103748
vn 0.550107 -0.833547 -0.050807
vn 0.010802 -0.999853 0.013304
vn 0.811721 -0.480898 -0.331432
vn 0.775406 0.551013 -0.308432
vn 0.729360 0.602133 -0.324762
vn 0.508649 0.788941 -0.344745
vn 0.308777 0.897257 -0.315573
vn 0.369244 0.792169 -0.485929
vn 0.339619 0.897328 -0.281890
vn 0.350080 0.609972 -0.710899
vn 0.335332 0.560292 -0.757380
vn 0.305699 -0.471522 -0.827173
vn -0.033242 -0.995279 -0.091181
vn 0.079357 -0.834959 -0.544561
vn 0.165482 -0.085105 -0.982534
vn 0.087068 0.316663 -0.944534
vn 0.180878 0.084507 -0.979868
vn 0.328711 -0.290916 -0.898508
vn 0.547971 -0.757651 -0.354531
vn 0.585618 -0.810587 -0.000014
vn 0.548374 -0.759850 0.349161
vn 0.328711 -0.290916 0.898508
vn 0.180878 0.084507 0.979868
vn 0.087068 0.316663 0.944534
vn 0.165482 -0.085105 0.982534
vn 0.079357 -0.834959 0.544561
vn -0.033242 -0.995279 0.091181
vn 0.305699 -0.471522 0.827173
vn 0.335332 0.560292 0.757380
vn 0.350080 0.609972 0.710900
vn 0.369244 0.792169 0.485929
vn 0.339619 0.897328 0.281890
vn 0.176236 0.973291 0.147124
vn 0.178568 0.983927 0.000505
vn 0.176966 0.972832 -0.149266
s 1
g pCube1
usemtl initialShadingGroup
f 43/1/1 80/111/2 81/110/3 3/4/4
s 2
f 9/5/5 89/6/6 90/7/7 46/8/8
s 3
f 5/9/9 75/10/10 76/11/11 42/12/12
s 4
f 56/13/13 78/14/14 79/112/15 1/16/16
s 5
f 44/17/17 58/18/18 59/19/19 4/20/20
s 6
f 55/21/21 43/1/22 3/4/23 54/22/24
s 1
f 3/4/4 81/110/3 82/109/25 38/24/26
s 5
f 4/20/20 59/19/19 60/25/27 37/26/28
s 3
f 75/10/10 5/9/9 39/27/29 74/28/30
s 6
f 54/22/24 3/4/23 38/24/31 53/29/32
s 1
f 14/92/33 85/31/34 86/32/35 18/33/36
s 6
f 50/97/37 14/92/38 18/33/39 49/35/40
s 3
f 71/93/41 15/98/42 19/38/43 70/39/44
s 5
f 13/96/45 63/41/46 64/42/47 17/43/48
s 1
f 18/33/36 86/32/35 87/44/49 22/45/50
s 6
f 49/35/40 18/33/39 22/45/51 48/46/52
s 3
f 70/39/44 19/38/43 23/47/53 69/48/54
s 5
f 17/43/48 64/42/47 65/49/55 21/50/56
s 1
f 22/45/50 87/44/49 88/51/57 26/52/58
s 6
f 48/46/52 22/45/51 26/52/59 47/53/60
s 3
f 69/48/54 23/47/53 27/54/61 68/55/62
s 5
f 21/50/56 65/49/55 66/56/63 25/57/64
s 1
f 26/52/58 88/51/57 89/6/65 9/5/66
s 6
f 47/53/60 26/52/59 9/5/67 46/8/68
s 3
f 68/55/62 27/54/61 12/58/69 67/59/70
s 5
f 25/57/64 66/56/63 45/60/71 10/61/72
f 30/62/73 61/63/74 62/103/75 34/65/76
s 1
f 31/66/77 83/107/78 84/108/79 35/69/80
s 6
f 52/70/81 31/66/82 35/69/83 51/71/84
s 3
f 73/72/85 32/73/86 36/74/87 72/75/88
s 5
f 34/104/76 62/64/75 63/95/46 13/40/45
s 1
f 35/100/80 84/68/79 85/91/34 14/30/33
s 6
f 51/105/84 35/100/83 14/30/38 50/34/37
s 3
f 72/101/88 36/106/87 15/37/42 71/36/41
s 1
f 38/24/26 82/109/25 83/107/78 31/66/77
s 6
f 53/29/32 38/24/31 31/66/82 52/70/81
s 3
f 74/28/30 39/27/29 32/73/86 73/72/85
s 5
f 37/26/28 60/25/27 61/63/74 30/62/73
s 3
f 42/12/12 76/11/11 77/76/89 7/77/90
s 6
f 56/13/91 1/16/92 43/1/22 55/21/21
s 1
f 1/16/93 79/112/94 80/111/2 43/1/1
s 5
f 2/78/95 57/79/96 58/18/18 44/17/17
s 2
f 46/8/8 90/7/7 67/59/97 12/58/98
s 6
f 27/54/99 47/53/60 46/8/68 12/58/100
f 23/47/101 48/46/52 47/53/60 27/54/99
f 19/38/102 49/35/40 48/46/52 23/47/101
f 15/98/103 50/97/37 49/35/40 19/38/102
f 36/106/104 51/105/84 50/34/37 15/37/103
f 32/73/105 52/70/81 51/71/84 36/74/104
f 39/27/106 53/29/32 52/70/81 32/73/105
f 5/9/107 54/22/24 53/29/32 39/27/106
f 42/12/108 55/21/21 54/22/24 5/9/107
f 7/77/109 56/13/91 55/21/21 42/12/108
s 4
f 7/77/110 77/76/111 78/14/14 56/13/13
s 5
f 58/18/18 57/79/96 8/80/112 41/81/113
f 59/19/19 58/18/18 41/81/113 6/82/114
f 60/25/27 59/19/19 6/82/114 40/83/115
f 61/63/74 60/25/27 40/83/115 29/84/116
f 62/103/75 61/63/74 29/84/116 33/85/117
f 63/95/46 62/64/75 33/102/117 16/86/118
f 64/42/47 63/41/46 16/94/118 20/87/119
f 65/49/55 64/42/47 20/87/119 24/88/120
f 66/56/63 65/49/55 24/88/120 28/89/121
f 45/60/71 66/56/63 28/89/121 11/90/122
s 3
f 28/89/123 68/55/62 67/59/70 11/90/124
f 24/88/125 69/48/54 68/55/62 28/89/123
f 20/87/126 70/39/44 69/48/54 24/88/125
f 16/94/127 71/93/41 70/39/44 20/87/126
f 33/102/128 72/101/88 71/36/41 16/86/127
f 29/84/129 73/72/85 72/75/88 33/85/128
f 40/83/130 74/28/30 73/72/85 29/84/129
f 6/82/131 75/10/10 74/28/30 40/83/130
f 76/11/11 75/10/10 6/82/131 41/81/132
f 77/76/89 76/11/11 41/81/132 8/80/133
s 4
f 78/14/14 77/76/111 8/80/134 57/79/135
f 79/15/15 78/14/14 57/79/135 2/78/136
s 1
f 80/2/2 79/15/94 2/78/137 44/17/138
f 81/3/3 80/2/2 44/17/138 4/20/139
f 82/23/25 81/3/3 4/20/139 37/26/140
f 83/67/78 82/23/25 37/26/140 30/62/141
f 84/99/79 83/67/78 30/62/141 34/65/142
f 85/91/34 84/68/79 34/104/142 13/40/143
f 86/32/35 85/31/34 13/96/143 17/43/144
f 87/44/49 86/32/35 17/43/144 21/50/145
f 88/51/57 87/44/49 21/50/145 25/57/146
f 89/6/65 88/51/57 25/57/146 10/61/147
s 2
f 90/7/7 89/6/6 10/61/148 45/60/149
f 67/59/97 90/7/7 45/60/149 11/90/150
